<svg xmlns="http://www.w3.org/2000/svg" viewBox="0 0 340.35 62.63"><defs><style>.a {fill: #0079c1;}.b {fill: #bbbcbb;}.c {fill: #f78d2d;}</style></defs><title>AUTOMANN-logo</title><path class="b" d="M31.32,1.35a30,30,0,1,1-30,30,30,30,0,0,1,30-30m0-1.35A31.32,31.32,0,1,0,62.63,31.32,31.35,31.35,0,0,0,31.32,0Z" /><path class="a" d="M337.8,9.67a2.62,2.62,0,0,1,1.25.33,2.32,2.32,0,0,1,1,.93,2.52,2.52,0,0,1,0,2.52,2.37,2.37,0,0,1-.94.94,2.59,2.59,0,0,1-2.54,0,2.35,2.35,0,0,1-.94-.94,2.5,2.5,0,0,1,0-2.52,2.34,2.34,0,0,1,1-.93A2.62,2.62,0,0,1,337.8,9.67Zm0,.42a2.2,2.2,0,0,0-1,.27,2,2,0,0,0-.8.78,2.08,2.08,0,0,0,0,2.1,2,2,0,0,0,.79.78,2.16,2.16,0,0,0,1.06.28,2.18,2.18,0,0,0,1.06-.28,2,2,0,0,0,.79-.78,2.1,2.1,0,0,0,.28-1,2.13,2.13,0,0,0-.29-1.06,1.94,1.94,0,0,0-.8-.78A2.21,2.21,0,0,0,337.8,10.09Zm-1.12,3.51V10.88h.95a2.34,2.34,0,0,1,.7.07.71.71,0,0,1,.47.66.71.71,0,0,1-.22.52.86.86,0,0,1-.57.25.74.74,0,0,1,.23.15,3.15,3.15,0,0,1,.41.54l.33.53h-.54l-.24-.43a2.43,2.43,0,0,0-.46-.63.54.54,0,0,0-.36-.09h-.26V13.6h-.44Zm.44-1.53h.54a.89.89,0,0,0,.53-.11.39.39,0,0,0,.07-.52.42.42,0,0,0-.19-.14,1.43,1.43,0,0,0-.45,0h-.51v.82Z" /><path class="a" d="M327,22.85h-4.63l.49-1.32h4.63a.39.39,0,0,0,.34-.24l.23-.61a.17.17,0,0,0-.16-.24h-3a1.07,1.07,0,0,1-1-1.56l.23-.61a2.53,2.53,0,0,1,2.19-1.56h4.63L330.35,18h-4.63a.39.39,0,0,0-.34.24l-.23.61a.17.17,0,0,0,.16.24h3a1.07,1.07,0,0,1,1,1.56l-.23.61A2.52,2.52,0,0,1,327,22.85Z" /><path class="a" d="M332.19,9.3l-1.68,4.57a.39.39,0,0,1-.34.24h-3a.16.16,0,0,1-.16-.24l1.68-4.57h-1.36l-1.68,4.57a1.07,1.07,0,0,0,1,1.56h3a2.52,2.52,0,0,0,2.19-1.56l1.68-4.57Z" /><path class="a" d="M326.48,24.13h-3a2.52,2.52,0,0,0-2.19,1.56l-1.68,4.57h1.36l.6-1.64h3.54l-.6,1.64h1.36l1.68-4.57A1.07,1.07,0,0,0,326.48,24.13ZM322,27.3l.6-1.61a.39.39,0,0,1,.34-.24h3a.16.16,0,0,1,.16.24l-.6,1.61Z" /><polygon class="a" points="2.98 30.2 2.98 28.99 38.66 9.44 47.58 9.44 39.58 30.2 29.89 30.2 34.22 19 14.4 30.2 2.98 30.2" /><path class="a" d="M53.16,9.41H61.4L56.74,20.95s-1.13,3.23.73,3.33,9,0,9,0,3,0,4.15-2.4,5-12.52,5-12.52h8.11L78,24.25a11.16,11.16,0,0,1-8.86,6H54s-3.87.07-5.66-1.73-.73-4.79-.67-5.09S53.16,9.41,53.16,9.41Z" /><polygon class="a" points="89.35 9.41 117.9 9.41 115.67 15.26 105.59 15.26 99.51 30.14 91.21 30.14 97 15.34 87.2 15.34 89.35 9.41" /><path class="a" d="M154.36,11.51l0,0c-1.08-1.71-5.68-2-6.11-2l-1.64-.11c-14.17-.65-16.73,0-16.73,0a11.81,11.81,0,0,0-8.21,5.52,75.8,75.8,0,0,0-3.47,8.7s-1.48,4,.27,5.12c1.67,1.43,5.6,1.62,5.6,1.62,3.82.08,14.89.14,17.83,0A9.47,9.47,0,0,0,150.11,26c2-3.1,4.26-9.86,4.44-10.53A4.39,4.39,0,0,0,154.36,11.51Zm-9.1,5.41a34.93,34.93,0,0,1-2.13,5.57,3.58,3.58,0,0,1-3.42,2c-2.07,0-9.4.05-11.15,0s-1.89-1.27-1.72-1.75A24,24,0,0,1,128.73,18s1-2.13,2.77-2.26a77.79,77.79,0,0,1,11-.11C144.75,15.82,145.5,16.2,145.26,16.93Z" /><path class="a" d="M154.62,30.34h7.89l5.14-12.67,3.74,12.64h6.33c.08,0,12.41-12.15,12.41-12.15L186,30.29h8.27l8-20.87H189.53l-12,11.9L174.42,9.39H162.57Z" /><polygon class="a" points="200.28 30.01 200.28 29.44 234.35 9.22 244.14 9.22 235.98 30.2 226.28 30.2 231.12 19 211.3 30.01 200.28 30.01" /><polygon class="a" points="241.78 30.32 250.23 30.32 255.58 16.52 263.29 30.32 274.84 30.32 282.78 9.37 274.78 9.37 269.71 21.98 261.83 9.37 249.72 9.37 241.78 30.32" /><polygon class="a" points="280.5 30.32 288.94 30.32 294.3 16.52 302.01 30.31 313.56 30.32 321.5 9.37 313.5 9.37 308.43 21.98 300.55 9.37 288.44 9.37 280.5 30.32" /><polygon class="b" points="47.75 54.65 39.28 32.7 29.62 32.7 34.24 44.38 14.44 33.25 2.94 33.25 2.94 34.37 38.79 54.65 47.75 54.65" /><path class="c" d="M35,32A51.84,51.84,0,0,0,18.3,34.8a39.74,39.74,0,0,1,12-1.88l1.34-.09-1.28.09c15.42,0,25.73,10.23,27.48,12.37a29.73,29.73,0,0,0,1.88-4.38C52.8,34.12,42.45,32,35,32Z" /></svg>
