<svg width="162" height="30" fill="none" xmlns="http://www.w3.org/2000/svg"><g clip-path="url(#clip0_7801_23851)"><path d="M21.526 22.517v-1.903h2.597c.583 0 1.054-.12 1.423-.351.368-.249.625-.574.788-.969.172-.394.257-.84.257-1.32 0-.634-.18-1.088-.531-1.354-.343-.266-.806-.403-1.371-.403h-3.163v-1.954h3.18c1.337 0 2.365.317 3.102.951.73.626 1.098 1.526 1.098 2.709 0 .6-.095 1.183-.292 1.74a4.387 4.387 0 01-.874 1.466 4.055 4.055 0 01-1.466 1.02c-.591.248-1.294.368-2.1.368h-2.648zm-1.26 3.36V14.254h2.288v11.623h-2.288zm14.087.189c-1.346 0-2.366-.223-3.052-.66-.677-.437-1.02-1.157-1.02-2.143 0-.634.155-1.157.472-1.569.325-.411.771-.711 1.337-.9.583-.205 1.251-.308 1.997-.308.463 0 .866.034 1.208.111.343.069.66.137.935.206v1.448a5.297 5.297 0 00-.823-.197 4.815 4.815 0 00-.969-.094c-.703 0-1.217.094-1.568.291-.334.198-.497.523-.497.986 0 .463.163.755.497.952.334.197.814.291 1.44.291.377 0 .737-.034 1.08-.094.351-.077.668-.189.934-.343l-.326.626a6.43 6.43 0 01-.111-.386 3.05 3.05 0 01-.077-.403c-.009-.137-.017-.3-.035-.471v-2.872c0-.548-.085-.96-.257-1.243a1.206 1.206 0 00-.754-.548c-.334-.095-.746-.146-1.243-.146a5.97 5.97 0 00-1.311.146c-.42.085-.755.188-1.02.308h-.163v-1.791c.386-.137.823-.24 1.311-.309.48-.077.969-.111 1.449-.111.6 0 1.157.051 1.663.163.514.111.96.3 1.337.566.377.265.669.65.874 1.148.215.489.326 1.114.326 1.886v2.888c.008.335.026.66.051.986.026.326.052.583.095.771l-.052.129c-.368.137-.763.266-1.191.369-.42.094-.849.171-1.294.223-.438.05-.858.077-1.26.077l.017.017zm7.014 3.557v-.197l2.134-5.117 2.632-7.243h2.288v.197l-4.809 12.36h-2.245zm1.594-3.086l-3.531-9.283v-.197h2.408l2.357 7.037-1.225 2.435-.009.008zm7.264-.66v-5.503c0-.214 0-.488-.017-.823a18.72 18.72 0 00-.051-1.002 3.467 3.467 0 00-.094-.789l.05-.129a6.981 6.981 0 011.15-.368c.437-.12.9-.214 1.37-.292.48-.077.944-.111 1.39-.111.505 0 .994.06 1.465.18.48.111.917.309 1.294.6.386.291.695.694.918 1.209.222.505.342 1.157.342 1.954v5.083H55.78v-4.989c0-.591-.086-1.046-.258-1.354a1.3 1.3 0 00-.694-.66 2.488 2.488 0 00-1.02-.197c-.325 0-.651.034-.986.111a6.889 6.889 0 00-.857.257l.343-.565c.052.162.095.368.129.625s.051.557.051.892v5.871h-2.263zm10.955 0V20.89c0-.592-.078-1.046-.24-1.355a1.245 1.245 0 00-.695-.66c-.3-.128-.668-.197-1.097-.197-.266 0-.54.034-.823.094a5.148 5.148 0 00-.788.223l-1.226-1.448a9.734 9.734 0 011.534-.497 7.105 7.105 0 011.629-.198c.54 0 1.011.052 1.483.163.471.112.9.309 1.277.6.377.283.669.677.891 1.192.215.505.326 1.165.326 1.988v5.083H61.18zm9.743.163c-.805 0-1.525-.094-2.16-.274-.634-.18-1.174-.455-1.611-.823a3.76 3.76 0 01-1.02-1.44c-.223-.583-.343-1.269-.343-2.066 0-.943.18-1.757.531-2.434a3.706 3.706 0 011.5-1.577c.66-.377 1.423-.566 2.29-.566.976 0 1.773.206 2.39.617.618.394 1.055.96 1.32 1.68.266.712.386 1.526.343 2.452l-.017.531h-6.908v-1.483h4.714v-.094c0-.66-.154-1.157-.471-1.5-.3-.343-.763-.514-1.39-.514-.385 0-.736.085-1.045.257-.3.163-.54.437-.728.84-.172.394-.257.943-.257 1.628v.343c0 .677.128 1.209.385 1.594a2.13 2.13 0 001.063.806c.446.163.977.24 1.569.24.531 0 .985-.051 1.388-.146.395-.094.712-.205.934-.342h.163v1.825c-.3.129-.668.24-1.114.326a7.955 7.955 0 01-1.534.129l.008-.009zm5.701-.163v-5.503c0-.214 0-.488-.017-.823a18.72 18.72 0 00-.052-1.002 3.455 3.455 0 00-.094-.789l.051-.129a6.989 6.989 0 011.149-.368c.454-.12.917-.214 1.388-.292a8.7 8.7 0 011.372-.111c.548 0 1.071.06 1.569.18.505.111.96.309 1.354.6.394.291.711.694.934 1.209.223.505.343 1.157.343 1.954v5.083h-2.263v-4.989c0-.591-.086-1.046-.257-1.354a1.337 1.337 0 00-.746-.66 3.096 3.096 0 00-1.148-.197 4.35 4.35 0 00-.986.111 6.91 6.91 0 00-.857.257l.343-.565c.051.162.094.368.128.625.035.257.052.557.052.892v5.871h-2.263zm14.606.129c-.764 0-1.415-.112-1.955-.343a2.521 2.521 0 01-1.209-1.037c-.265-.472-.403-1.08-.403-1.826v-8.023h2.263v7.843c0 .549.129.943.386 1.174.257.24.66.352 1.192.352.205 0 .402-.026.6-.069.205-.043.385-.094.531-.163h.146v1.809c-.198.077-.42.137-.678.18a4.483 4.483 0 01-.874.077v.026zm-4.972-7.132v-1.808h6.068v1.808h-6.068zm8.048 4.775h.129c.385.162.84.3 1.354.42.523.12 1.054.18 1.586.18.18 0 .385 0 .6-.017.214-.018.411-.06.6-.112a.922.922 0 00.471-.291c.129-.137.197-.326.197-.566 0-.3-.12-.514-.368-.626-.249-.12-.626-.223-1.149-.308l-.754-.129c-.857-.154-1.526-.411-1.989-.771-.463-.377-.694-.935-.694-1.663 0-.523.137-1.003.42-1.44.291-.429.737-.772 1.337-1.02.617-.257 1.414-.386 2.409-.386.463 0 .891.034 1.277.094.394.052.771.137 1.131.24v1.86h-.128a6.371 6.371 0 00-1.174-.343 6.484 6.484 0 00-1.166-.094c-.6 0-1.072.077-1.423.223-.334.137-.497.394-.497.754 0 .283.12.48.368.6.257.12.626.223 1.115.309l.745.129c.506.077.96.205 1.372.402.42.197.754.463 1.003.806.248.334.368.763.368 1.294 0 .935-.351 1.637-1.046 2.117-.685.463-1.73.695-3.128.695a9.474 9.474 0 01-1.552-.129 10.394 10.394 0 01-1.388-.325v-1.903h-.026zm-65.189-17.1c0-1.218.232-2.272.694-3.163a4.971 4.971 0 012.083-2.1C32.82.789 33.952.54 35.297.54a7.52 7.52 0 011.466.129c.437.085.806.197 1.097.342v2.032h-.163a3.47 3.47 0 00-1.02-.369A5.496 5.496 0 0035.4 2.53c-.857 0-1.577.154-2.16.471a3.052 3.052 0 00-1.32 1.371c-.3.592-.454 1.32-.454 2.178 0 .857.154 1.594.454 2.194a3.1 3.1 0 001.32 1.354c.583.309 1.303.472 2.16.472.454 0 .874-.043 1.277-.129a3.835 3.835 0 001.02-.386h.163v2.032c-.291.137-.66.248-1.097.343a7.521 7.521 0 01-1.466.128c-1.345 0-2.477-.24-3.403-.728a4.847 4.847 0 01-2.082-2.066c-.463-.9-.695-1.972-.695-3.214zm14.829 6c-1.345 0-2.365-.223-3.051-.66-.677-.438-1.02-1.158-1.02-2.143 0-.635.154-1.157.471-1.569.326-.411.772-.711 1.338-.9.582-.206 1.251-.308 1.997-.308.463 0 .865.034 1.208.111.343.069.66.137.935.206v1.448A5.304 5.304 0 0045 8.537a4.81 4.81 0 00-.969-.094c-.703 0-1.217.094-1.568.291-.335.197-.498.523-.498.986 0 .463.163.754.498.951.334.197.814.292 1.44.292.377 0 .737-.034 1.08-.095.351-.077.668-.188.934-.342l-.326.625a6.58 6.58 0 01-.111-.385 3.034 3.034 0 01-.077-.403c-.009-.137-.018-.3-.035-.472V7.02c0-.549-.085-.96-.257-1.243a1.206 1.206 0 00-.754-.548c-.334-.095-.746-.146-1.243-.146a5.97 5.97 0 00-1.311.146c-.42.085-.755.188-1.02.308h-.163V3.746c.385-.137.823-.24 1.311-.309.48-.077.969-.111 1.449-.111.6 0 1.157.051 1.663.163.514.111.96.3 1.337.565.377.266.668.652.874 1.149.214.488.326 1.114.326 1.886v2.888c.008.334.025.66.051.986.026.326.052.583.094.771l-.051.129c-.369.137-.763.266-1.191.368-.42.095-.849.172-1.295.223a10.8 10.8 0 01-1.26.077l.017.018zm5.993-2.418h.129c.385.163.84.3 1.354.42.523.12 1.054.18 1.586.18.18 0 .385 0 .6-.017.214-.017.411-.06.6-.111a.923.923 0 00.471-.292c.129-.137.197-.325.197-.565 0-.3-.12-.515-.368-.626-.249-.12-.626-.223-1.149-.309l-.754-.128c-.857-.154-1.526-.412-1.989-.772-.463-.377-.694-.934-.694-1.662 0-.523.137-1.003.42-1.44.291-.429.737-.772 1.337-1.02.617-.258 1.414-.386 2.409-.386.462 0 .891.034 1.277.094.394.052.771.137 1.131.24v1.86h-.128a6.357 6.357 0 00-1.175-.343 6.486 6.486 0 00-1.165-.094c-.6 0-1.08.077-1.423.223-.335.137-.497.394-.497.754 0 .283.12.48.368.6.257.12.626.223 1.114.309l.746.128c.506.077.96.206 1.372.403.42.197.754.463 1.002.806.249.334.369.763.369 1.294 0 .934-.351 1.637-1.046 2.117-.685.463-1.731.694-3.128.694a9.474 9.474 0 01-1.552-.128 10.398 10.398 0 01-1.388-.326v-1.903h-.026zm9.357 2.229V2.82c0-.214 0-.489-.017-.823a18.617 18.617 0 00-.052-1.003 3.362 3.362 0 00-.094-.771l.051-.129h2.375v4.517l-.489-.745a5.922 5.922 0 011.08-.369 5.115 5.115 0 011.371-.163c.515 0 1.02.069 1.466.206a2.86 2.86 0 011.192.66c.342.3.617.703.805 1.209.197.497.292 1.114.292 1.86v5.082h-2.263V7.38c0-.574-.086-1.011-.257-1.32a1.334 1.334 0 00-.729-.66c-.3-.129-.66-.197-1.063-.197a4.24 4.24 0 00-.711.068c-.24.043-.463.095-.677.146a4.292 4.292 0 00-.48.146l.454-1.02v7.817h-2.263.009zm11.196 0V3.626c0-.832.145-1.509.437-2.049.3-.54.728-.934 1.277-1.191C72.754.129 73.423 0 74.203 0c.283 0 .523.017.746.051.223.035.42.078.583.146V1.93h-.163a2.651 2.651 0 00-.437-.129 2.171 2.171 0 00-.583-.069c-.575 0-.977.155-1.226.455-.249.3-.369.788-.369 1.465v8.709h-2.262zm-1.406-7.003V3.55h5.906v1.808h-5.906zm7.592 7.003V6.73c0-.215 0-.489-.017-.823a18.618 18.618 0 00-.051-1.003 3.46 3.46 0 00-.094-.789l.051-.128c.3-.112.652-.206 1.046-.292.411-.085.831-.154 1.277-.197a11.955 11.955 0 011.98-.06c.223.009.454.034.677.069V5.35h-.146a2.562 2.562 0 00-.548-.078 4.786 4.786 0 00-.6-.034c-.343 0-.686.026-1.02.077-.335.052-.617.12-.857.197l.343-.514c.137.292.205.789.205 1.5v5.872h-2.263l.017-.009zm11.347.163c-.806 0-1.526-.094-2.16-.274-.634-.18-1.174-.455-1.611-.823a3.76 3.76 0 01-1.02-1.44c-.223-.583-.343-1.269-.343-2.066 0-.943.18-1.757.531-2.434a3.706 3.706 0 011.5-1.577c.66-.378 1.423-.566 2.289-.566.977 0 1.774.206 2.391.617.617.394 1.054.96 1.32 1.68.266.711.386 1.526.343 2.451l-.017.532h-6.909V7.14h4.715v-.094c0-.66-.155-1.157-.472-1.5-.3-.343-.763-.515-1.388-.515-.386 0-.738.086-1.046.258-.3.162-.54.437-.729.84-.171.394-.257.942-.257 1.628V8.1c0 .677.129 1.209.386 1.594.257.377.617.643 1.063.806.454.163.977.24 1.568.24.523 0 .986-.051 1.389-.146.394-.094.711-.205.934-.342h.163v1.825c-.3.129-.669.24-1.114.326a7.954 7.954 0 01-1.535.128l.009-.008zm10.265 0c-.805 0-1.525-.094-2.16-.274-.634-.18-1.174-.455-1.61-.823a3.762 3.762 0 01-1.02-1.44c-.224-.583-.344-1.269-.344-2.066 0-.943.18-1.757.532-2.434a3.706 3.706 0 011.5-1.577c.66-.378 1.422-.566 2.288-.566.977 0 1.775.206 2.392.617.617.394 1.054.96 1.32 1.68.265.711.385 1.526.343 2.451l-.018.532h-6.908V7.14h4.714v-.094c0-.66-.154-1.157-.471-1.5-.3-.343-.763-.515-1.389-.515a2.12 2.12 0 00-1.046.258c-.3.162-.54.437-.728.84-.172.394-.257.942-.257 1.628V8.1c0 .677.128 1.209.385 1.594.257.377.617.643 1.063.806.454.163.977.24 1.569.24a6.06 6.06 0 001.388-.146c.395-.094.712-.205.935-.342h.163v1.825c-.3.129-.669.24-1.115.326a7.953 7.953 0 01-1.534.128l.008-.008z" fill="#fff"/><path d="M9.937.154A4.232 4.232 0 005.703 4.39h15.712A4.232 4.232 0 0025.649.154H9.937z" fill="#04AB61"/><path d="M5.703 4.389A4.232 4.232 0 019.937.154v15.712A4.232 4.232 0 015.703 20.1V4.389z" fill="#04AB61"/><path fill-rule="evenodd" clip-rule="evenodd" d="M11.29 5.803v4.234h4.936a4.232 4.232 0 004.235-4.234h-9.172z" fill="#FBB016"/><path d="M0 10.029a4.232 4.232 0 014.234-4.235v15.712A4.232 4.232 0 010 25.74V10.029z" fill="#FBB016"/><path d="M161.14 3.429h-51.429v22.285h51.429V3.43z" fill="#6933D3"/><path d="M122.607 19.886h-3.802V8.665h3.878c1.115 0 2.071.225 2.872.674a4.507 4.507 0 011.851 1.923c.431.836.646 1.837.646 3.002 0 1.17-.216 2.174-.651 3.014a4.505 4.505 0 01-1.869 1.934c-.81.45-1.786.674-2.925.674zm-1.77-1.759h1.671c.781 0 1.434-.142 1.956-.427a2.736 2.736 0 001.178-1.288c.263-.573.394-1.29.394-2.147 0-.859-.131-1.571-.394-2.137-.263-.57-.652-.996-1.167-1.277-.511-.285-1.147-.427-1.907-.427h-1.731v7.703zm19.173-3.852c0 1.21-.226 2.245-.679 3.107-.449.858-1.063 1.516-1.841 1.972-.774.457-1.653.685-2.635.685-.983 0-1.863-.228-2.641-.685-.774-.46-1.388-1.12-1.841-1.977-.449-.862-.674-1.896-.674-3.102 0-1.209.225-2.242.674-3.1.453-.863 1.067-1.522 1.841-1.979.778-.456 1.658-.684 2.641-.684.982 0 1.861.228 2.635.684.778.457 1.392 1.116 1.841 1.978.453.859.679 1.892.679 3.101zm-2.043 0c0-.85-.134-1.568-.4-2.153-.263-.588-.629-1.032-1.096-1.331-.468-.303-1.006-.455-1.616-.455-.611 0-1.149.152-1.617.455-.467.3-.834.743-1.1 1.331-.264.585-.396 1.302-.396 2.153s.132 1.571.396 2.16c.266.584.633 1.027 1.1 1.33.468.3 1.006.45 1.617.45.61 0 1.148-.15 1.616-.45.467-.303.833-.747 1.096-1.33.266-.589.4-1.308.4-2.16zm13.569-1.824h-2.048a2.543 2.543 0 00-.324-.893 2.394 2.394 0 00-1.386-1.08 3.124 3.124 0 00-.958-.142c-.611 0-1.152.153-1.622.46-.472.304-.841.75-1.108 1.337-.266.585-.399 1.299-.399 2.142 0 .859.133 1.582.399 2.17.271.584.64 1.026 1.108 1.326.47.296 1.01.444 1.616.444.336 0 .65-.044.942-.132.296-.091.561-.224.795-.4a2.36 2.36 0 00.597-.646c.164-.256.277-.548.34-.877l2.048.011a4.389 4.389 0 01-.498 1.501c-.252.468-.582.88-.991 1.238-.41.355-.888.632-1.436.833a5.357 5.357 0 01-1.825.296c-.986 0-1.866-.228-2.641-.685-.774-.456-1.384-1.116-1.83-1.977-.445-.862-.667-1.896-.667-3.102 0-1.209.224-2.242.673-3.1.449-.863 1.061-1.522 1.835-1.979.775-.456 1.651-.684 2.63-.684.625 0 1.206.087 1.743.263a4.47 4.47 0 011.435.772c.42.336.765.749 1.036 1.238.273.486.452 1.041.536 1.666z" fill="#fff"/></g><defs><clipPath id="clip0_7801_23851"><path fill="#fff" d="M0 0h161.143v30H0z"/></clipPath></defs></svg>